<svg width="20" height="20" viewBox="0 0 20 20" fill="none" xmlns="http://www.w3.org/2000/svg">
<path d="M18.7434 8.71722L11.028 8.71685C10.6873 8.71685 10.4111 8.99297 10.4111 9.33366V11.7984C10.4111 12.139 10.6873 12.4152 11.0279 12.4152H15.3728C14.897 13.6499 14.009 14.6839 12.8761 15.3409L14.7287 18.548C17.7006 16.8292 19.4576 13.8135 19.4576 10.4377C19.4576 9.95702 19.4221 9.6134 19.3513 9.22649C19.2974 8.93253 19.0422 8.71722 18.7434 8.71722Z" fill="#167EE6"/>
<path d="M9.99882 16.1187C7.87254 16.1187 6.01633 14.957 5.01939 13.2379L1.81243 15.0863C3.44443 17.9148 6.5017 19.8195 9.99882 19.8195C11.7144 19.8195 13.3332 19.3576 14.7277 18.5526V18.5482L12.875 15.3411C12.0276 15.8326 11.047 16.1187 9.99882 16.1187Z" fill="#12B347"/>
<path d="M14.7289 18.5521L14.7287 18.548L12.8761 15.3409C12.0287 15.8324 11.0483 16.1181 10.0001 16.1181V19.8189C11.7157 19.8189 13.3345 19.357 14.7289 18.5521Z" fill="#0F993E"/>
<path d="M4.24331 10.3618C4.24331 9.31378 4.52933 8.33325 5.02073 7.48587L1.81376 5.63742C1.00435 7.02751 0.54248 8.64188 0.54248 10.3618C0.54248 12.0818 1.00435 13.6962 1.81376 15.0863L5.02073 13.2378C4.52933 12.3904 4.24331 11.4099 4.24331 10.3618Z" fill="#FFD500"/>
<path d="M9.99882 4.60481C11.3854 4.60481 12.659 5.09749 13.6538 5.91701C13.8992 6.11917 14.2559 6.10458 14.4807 5.87978L16.227 4.13344C16.4821 3.87838 16.4639 3.46088 16.1915 3.22451C14.5247 1.77856 12.3561 0.903992 9.99882 0.903992C6.5017 0.903992 3.44443 2.80871 1.81243 5.6372L5.01939 7.48565C6.01632 5.76654 7.87254 4.60481 9.99882 4.60481Z" fill="#FF4B26"/>
<path d="M13.6551 5.91702C13.9005 6.11917 14.2572 6.10458 14.482 5.87978L16.2283 4.13344C16.4833 3.87838 16.4652 3.46088 16.1927 3.22451C14.526 1.77853 12.3574 0.903992 10.0001 0.903992V4.60481C11.3866 4.60481 12.6603 5.09749 13.6551 5.91702Z" fill="#D93F21"/>
</svg>
