<svg width="298" height="297" viewBox="0 0 298 297" fill="none" xmlns="http://www.w3.org/2000/svg">
<path d="M238.236 157.185H118.346V243.57H238.236V157.185Z" fill="#D1EAFF"/>
<path d="M86.689 230.11L91.0317 117.552H225.476V225.507L86.689 230.11Z" stroke="black" stroke-width="1.18605"/>
<path d="M226.067 116.958H90.4597V139.549H226.067V116.958Z" fill="black"/>
<path d="M101.132 134.025C104.32 134.025 106.903 131.441 106.903 128.254C106.903 125.066 104.32 122.483 101.132 122.483C97.945 122.483 95.3613 125.066 95.3613 128.254C95.3613 131.441 97.945 134.025 101.132 134.025Z" fill="white"/>
<path d="M116.136 134.025C119.323 134.025 121.907 131.441 121.907 128.254C121.907 125.066 119.323 122.483 116.136 122.483C112.948 122.483 110.365 125.066 110.365 128.254C110.365 131.441 112.948 134.025 116.136 134.025Z" fill="white"/>
<path d="M131.14 134.025C134.327 134.025 136.911 131.441 136.911 128.254C136.911 125.066 134.327 122.483 131.14 122.483C127.952 122.483 125.368 125.066 125.368 128.254C125.368 131.441 127.952 134.025 131.14 134.025Z" fill="white"/>
<path d="M71.4985 154.193V248.115H179.369L179.545 227.598" stroke="#FFDC4D" stroke-width="1.18605"/>
<path d="M118.283 146.519L195.154 148.483C198.838 148.577 201.746 151.64 201.652 155.323C201.559 159.007 198.497 161.916 194.813 161.823L117.942 159.858C114.259 159.764 111.349 156.701 111.443 153.018C111.537 149.334 114.599 146.425 118.283 146.519Z" stroke="black" stroke-width="1.18605"/>
<path d="M104.657 177.252L181.543 176.063C185.227 176.007 188.26 178.947 188.318 182.631C188.374 186.315 185.434 189.348 181.75 189.405L104.863 190.594C101.18 190.65 98.1464 187.71 98.0894 184.026C98.0324 180.342 100.973 177.309 104.657 177.252Z" stroke="black" stroke-width="1.18605"/>
<path d="M129.285 193.121L206.17 194.391C209.854 194.453 212.791 197.489 212.73 201.173C212.669 204.856 209.634 207.794 205.949 207.733L129.064 206.463C125.38 206.402 122.443 203.366 122.504 199.682C122.565 195.998 125.6 193.061 129.285 193.121Z" stroke="black" stroke-width="1.18605"/>
<path d="M182.3 206.156C185.357 206.207 187.875 203.77 187.926 200.713C187.976 197.657 185.54 195.139 182.483 195.088C179.426 195.038 176.908 197.474 176.858 200.53C176.807 203.587 179.244 206.106 182.3 206.156Z" fill="#FFDC4D"/>
<path d="M128.417 189.044C131.473 188.996 133.912 186.481 133.865 183.424C133.817 180.368 131.302 177.928 128.245 177.976C125.189 178.022 122.749 180.539 122.797 183.596C122.843 186.652 125.36 189.091 128.417 189.044Z" fill="#FFDC4D"/>
<path d="M260.179 266.367C257.58 253.148 245.656 228.702 242.065 236.298C237.575 245.794 239.308 272.976 245.373 274.558C251.436 276.141 242.616 236.484 235.056 239.277C229.007 241.511 232.536 253.117 235.056 258.641C234.164 251.193 233.016 240.767 220.644 233.785" stroke="black" stroke-width="1.18605" stroke-linecap="round"/>
<path d="M158.277 111.856C164.632 79.5612 193.785 19.8377 202.565 38.396C213.541 61.5939 209.304 128.003 194.478 131.87C179.651 135.737 201.217 38.8509 219.703 45.6738C234.491 51.1321 225.864 79.4851 219.703 92.9793C221.885 74.7849 224.688 49.3129 254.941 32.2556" stroke="black" stroke-width="1.18605" stroke-linecap="round"/>
<path d="M160.244 136.973L163.321 144.768L174.072 139.593L167.158 149.578L176.058 154.312L165.789 155.579L166.398 163.935L160.244 158.248L151.744 166.032L154.7 155.579L146.417 154.312L153.33 149.578L150.459 142.904L157.167 144.768L160.244 136.973Z" fill="black"/>
<path d="M163.742 135.64L166.82 143.434L177.571 138.259L170.657 148.245L179.556 152.979L169.287 154.245L169.897 162.602L163.742 156.915L155.242 164.698L158.199 154.245L149.915 152.979L156.829 148.245L153.957 141.57L160.666 143.434L163.742 135.64Z" fill="#FFDC4D"/>
<path d="M64.5779 42.5967C64.5779 45.0875 65.1437 49.9474 67.6547 49.9474C70.1657 49.9474 73.6709 45.0875 73.6709 42.5967C73.6709 40.106 71.6354 38.0869 69.1244 38.0869C66.6134 38.0869 64.5779 40.106 64.5779 42.5967Z" fill="black"/>
<path d="M53.9048 45.4982C53.9048 47.4078 54.3292 51.1337 56.2123 51.1337C58.0956 51.1337 60.7246 47.4078 60.7246 45.4982C60.7246 43.5886 59.1979 42.0406 57.3147 42.0406C55.4314 42.0406 53.9048 43.5886 53.9048 45.4982Z" fill="black"/>
<path d="M63.394 57.4574C63.394 59.3671 63.8246 63.0929 65.7351 63.0929C67.6456 63.0929 70.3127 59.3671 70.3127 57.4574C70.3127 55.5479 68.7639 53.9999 66.8534 53.9999C64.9428 53.9999 63.394 55.5479 63.394 57.4574Z" fill="black"/>
<path d="M53.9048 57.4574C53.9048 59.3671 54.3292 63.0929 56.2123 63.0929C58.0956 63.0929 60.7246 59.3671 60.7246 57.4574C60.7246 55.5479 59.1979 53.9999 57.3147 53.9999C55.4314 53.9999 53.9048 55.5479 53.9048 57.4574Z" fill="black"/>
<path d="M44.3169 57.4574C44.3169 59.3671 44.7413 63.0929 46.6245 63.0929C48.5077 63.0929 51.1367 59.3671 51.1367 57.4574C51.1367 55.5479 49.61 53.9999 47.7268 53.9999C45.8435 53.9999 44.3169 55.5479 44.3169 57.4574Z" fill="black"/>
<path d="M63.2939 69.4166C63.2939 71.3263 63.7245 75.0522 65.635 75.0522C67.5455 75.0522 70.2126 71.3263 70.2126 69.4166C70.2126 67.5071 68.6638 65.9591 66.7533 65.9591C64.8427 65.9591 63.2939 67.5071 63.2939 69.4166Z" fill="black"/>
<path d="M78.7996 225.135L60.9099 230.569L63.8383 236.202L56.7375 243.044L63.2669 248.815L70.4223 239.608L74.2984 242.225L78.7996 225.135Z" fill="#FFDC4D" stroke="black" stroke-width="0.0988376"/>
<path d="M79.336 222.63L58.3155 229.022L61.7547 235.641L53.4099 243.685L61.0798 250.465L69.4894 239.642L74.043 242.717L79.336 222.63Z" stroke="black" stroke-width="1.18605"/>
<path d="M95.2674 169.64C92.1837 168.256 81.0019 162.968 75.7964 160.497L89.4854 129.067C90.622 128.919 94.8918 128.622 102.878 128.622C113.651 128.622 116.913 133.564 121.805 134.849C128.427 136.776 129.119 139.247 128.971 140.038C128.823 140.829 124.622 143.299 116.913 141.767C110.745 140.542 110.555 142.047 111.23 142.954C113.157 147.006 121.064 150.861 124.227 151.355C127.39 151.849 138.459 150.317 136.186 155.061C134.586 158.4 128.408 159.077 124.466 158.99C127.467 159.214 131.59 159.956 131.59 161.733C130.325 165.409 126.154 165.834 124.227 165.587C120.55 169.659 116.732 169.986 115.282 169.64C114.936 170.332 113.641 171.933 111.23 172.802C108.215 173.89 99.1221 171.369 95.2674 169.64Z" fill="#3D98E7"/>
<path d="M199.501 176.063C202.585 174.68 220.544 168.156 228.797 161.485L205.283 135.49C204.146 135.342 199.876 135.046 191.89 135.046C181.117 135.046 177.855 139.988 172.963 141.272C166.341 143.2 165.649 145.671 165.797 146.461C165.945 147.252 170.146 149.723 177.855 148.191C184.023 146.966 184.214 148.471 183.539 149.377C181.611 153.43 176.109 157.48 172.963 156.889C167.963 155.95 158.721 152.468 158.721 157.729C158.721 161.637 166.873 165.118 170.939 165.344C168.095 165.327 164.263 165.061 163.367 167.168C162.823 170.084 164.899 171.072 170.541 172.011C174.218 176.083 178.036 176.409 179.486 176.063C179.832 176.755 181.127 178.356 183.539 179.226C186.553 180.313 195.646 177.793 199.501 176.063Z" fill="#3D98E7"/>
<path d="M190.545 70.5057C176.985 67.5801 162.162 71.7247 156.446 74.1627C142.774 72.9438 113.066 70.0116 103.618 68.0348C91.8067 65.5639 80.7863 70.5057 75.6467 74.1627C70.5071 77.8197 60.1787 85.7267 47.1815 92.843C16.2453 106.829 9.67344 130.352 12.5891 135.294C15.5048 140.236 27.9584 147.747 49.1088 151.503C64.7496 154.28 73.0111 160.02 75.6467 160.843C85.2537 156.336 90.4559 135.739 91.856 126.003L85.481 119.332L94.327 112.462L100.802 117.01H189.904L210.708 126.003C208.969 126.596 204.415 132.444 202.356 135.294C199.628 151.978 215.781 160.761 224.199 163.067C226.407 163.149 231.454 162.82 233.984 160.843C237.147 158.372 262.005 138.012 267.392 129.66C272.778 121.308 264.229 109.3 253.653 103.913C243.077 98.5262 207.496 74.1627 190.545 70.5057Z" fill="#FFDC4D"/>
<path d="M214.514 93.2875L216.194 99.9096L214.514 93.2875ZM172.656 97.0434L178.537 101.54L172.656 97.0434ZM178.537 87.3573L184.022 83.3049L178.537 87.3573ZM156.545 90.1741L155.359 97.0434L156.545 90.1741ZM131.441 110.782L141.374 113.846L131.441 110.782ZM111.08 87.3573L115.577 90.1741L111.08 87.3573ZM89.0887 104.16L97.3911 102.974L89.0887 104.16ZM80.5392 77.6218L84.3445 83.3049L80.5392 77.6218ZM54.0508 94.6713L50.0478 99.1684L54.0508 94.6713ZM73.7194 124.52L80.5392 129.462L73.7194 124.52ZM62.106 138.951C54.5153 141.995 54.825 142.097 55.9287 141.767L62.106 138.951ZM32.2571 126.398L34.6292 118.59L32.2571 126.398ZM218.072 154.122L225.188 152.936L218.072 154.122ZM222.124 126.398L220.197 134.948L222.124 126.398ZM256.668 120.27L261.412 126.398L256.668 120.27Z" stroke="black" stroke-width="1.18605" stroke-linecap="round"/>
<path d="M213.329 123.729C216.756 120.287 224.488 112.946 228.007 111.128" stroke="black" stroke-width="1.18605" stroke-linecap="round"/>
<path d="M83.8024 118.145C71.8161 113.293 57.0726 108.767 44.2673 113.499" stroke="black" stroke-width="1.18605" stroke-linecap="round"/>
<path d="M49.4067 105.741C50.9387 105.741 55.3864 106.542 60.9213 109.744" stroke="black" stroke-width="1.18605" stroke-linecap="round"/>
<path d="M120.778 70.8785C123.512 70.8785 125.728 68.6626 125.728 65.9291C125.728 63.1957 123.512 60.9797 120.778 60.9797C118.045 60.9797 115.829 63.1957 115.829 65.9291C115.829 68.6626 118.045 70.8785 120.778 70.8785Z" fill="black"/>
<path d="M120.778 80.0038C123.512 80.0038 125.728 77.7878 125.728 75.0544C125.728 72.3209 123.512 70.105 120.778 70.105C118.045 70.105 115.829 72.3209 115.829 75.0544C115.829 77.7878 118.045 80.0038 120.778 80.0038Z" fill="black"/>
<path d="M115.83 75.0548C118.564 75.0548 120.78 72.8389 120.78 70.1054C120.78 67.372 118.564 65.156 115.83 65.156C113.096 65.156 110.88 67.372 110.88 70.1054C110.88 72.8389 113.096 75.0548 115.83 75.0548Z" fill="black"/>
<path d="M159.601 69.409C159.601 80.8127 150.356 90.0573 138.952 90.0573C119.774 91.9133 118.304 80.8127 118.304 69.409C118.304 58.0053 127.548 48.7609 138.952 48.7609C150.356 48.7609 159.601 58.0053 159.601 69.409Z" fill="#3D98E7"/>
<path d="M138.954 48.415C130.796 48.415 123.288 53.3075 120.323 60.8192L159.405 66.5478C158.012 56.4984 149.386 48.415 138.954 48.415Z" fill="#F07CF2"/>
<path d="M158.596 66.3934L105.003 58.9693" stroke="black" stroke-width="1.18605" stroke-linecap="round"/>
<path d="M125.314 85.2333L128.203 90.6C132.951 100.391 150.831 97.24 150.617 85.9746C150.46 77.6947 125.314 85.2333 125.314 85.2333Z" fill="#3D98E7"/>
<path d="M158.364 75.055C161.268 75.055 163.622 72.666 163.622 69.719C163.622 66.7719 161.268 64.3829 158.364 64.3829C155.459 64.3829 153.105 66.7719 153.105 69.719C153.105 72.666 155.459 75.055 158.364 75.055Z" fill="black"/>
<path d="M163.7 75.0542C165.194 75.0542 166.406 73.8078 166.406 72.2701C166.406 70.7325 165.194 69.4861 163.7 69.4861C162.205 69.4861 160.992 70.7325 160.992 72.2701C160.992 73.8078 162.205 75.0542 163.7 75.0542Z" fill="black"/>
<path d="M165.788 76.9874C165.788 80.447 163.004 83.7434 159.524 84.2568C154.807 84.9528 150.785 80.215 150.785 76.7555C150.785 73.2959 156.064 70.7234 159.524 70.7234C162.984 70.7234 165.788 73.5279 165.788 76.9874Z" fill="black"/>
<path d="M120.07 68.9701C124.188 69.5116 127.972 66.5633 128.522 62.3849L113.609 60.4235C113.059 64.6021 115.952 68.4285 120.07 68.9701Z" fill="black"/>
<path d="M128.516 67.3846C131.132 67.7201 133.531 65.812 133.876 63.1224L124.408 61.907C124.062 64.5966 125.902 67.0489 128.516 67.3846Z" fill="black"/>
<path d="M152.379 77.9961C154.456 78.6785 156.811 77.1877 157.639 74.6661C158.468 72.1447 157.457 69.5474 155.38 68.8649C153.303 68.1826 150.948 69.6734 150.12 72.195C149.292 74.7164 150.303 77.3137 152.379 77.9961Z" fill="#0E76D0"/>
<path d="M151.172 73.4306C151.869 72.2705 153.802 70.8786 155.58 71.1878" stroke="black" stroke-width="0.790701" stroke-linecap="round"/>
<path d="M154.445 71.3645C154.655 71.6875 155.097 72.7508 155.164 73.4755" stroke="black" stroke-width="0.790701" stroke-linecap="round"/>
<path d="M129.359 80.9819L133.786 74.4402L135.059 81.9737L129.359 80.9819Z" fill="#0E76D0"/>
<path d="M133.32 74.9119L129.317 80.6027L134.681 81.4328" stroke="black" stroke-width="0.790701" stroke-linecap="round"/>
<path d="M133.864 85.2151C134.56 85.2409 136.308 85.1223 137.731 84.4418" stroke="black" stroke-width="0.790701" stroke-linecap="round"/>
<path d="M139.894 69.4209C140.589 69.3951 142.338 69.5136 143.76 70.1942" stroke="black" stroke-width="0.790701" stroke-linecap="round"/>
<path d="M127.586 66.8599C126.89 66.8342 125.143 66.9527 123.719 67.6333" stroke="black" stroke-width="0.790701" stroke-linecap="round"/>
<path d="M134.081 89.4395C135.782 89.7488 138.797 89.9808 141.118 88.0475" stroke="black" stroke-width="0.790701" stroke-linecap="round"/>
<path d="M126.227 75.803C126.953 75.803 127.541 75.2144 127.541 74.4883C127.541 73.7623 126.953 73.1737 126.227 73.1737C125.5 73.1737 124.912 73.7623 124.912 74.4883C124.912 75.2144 125.5 75.803 126.227 75.803Z" fill="black"/>
<path d="M141.504 75.803C142.231 75.803 142.819 75.2144 142.819 74.4883C142.819 73.7623 142.231 73.1737 141.504 73.1737C140.778 73.1737 140.19 73.7623 140.19 74.4883C140.19 75.2144 140.778 75.803 141.504 75.803Z" fill="black"/>
<path d="M143.273 83.2087C144.72 83.2087 145.893 82.0358 145.893 80.5891C145.893 79.1423 144.72 77.9694 143.273 77.9694C141.826 77.9694 140.654 79.1423 140.654 80.5891C140.654 82.0358 141.826 83.2087 143.273 83.2087Z" fill="#0E76D0"/>
<path d="M124.129 81.8159C125.576 81.8159 126.749 80.643 126.749 79.1962C126.749 77.7494 125.576 76.5765 124.129 76.5765C122.682 76.5765 121.51 77.7494 121.51 79.1962C121.51 80.643 122.682 81.8159 124.129 81.8159Z" fill="#0E76D0"/>
<path d="M181.503 176.064C182.869 176.014 185.95 176.054 187.532 175.619M173.25 165.241C173.25 165.241 177.994 165.982 183.331 164.401L173.25 165.241ZM172.607 171.666C173.991 172.061 181.503 172.555 184.319 171.27L172.607 171.666Z" stroke="black" stroke-width="1.18605" stroke-linecap="round"/>
<path d="M113.997 169.442C109.698 170.678 103.105 169.066 101.247 167.959M123.041 158.916C120.026 159.41 115.43 158.916 111.724 157.236L123.041 158.916ZM121.805 165.34C117.654 165.637 109.451 165.785 105.102 162.919L121.805 165.34Z" stroke="black" stroke-width="1.18605" stroke-linecap="round"/>
<path d="M50.7121 166.216L31.9707 184.958C30.3525 184.367 28.6436 184.063 26.921 184.06C18.7086 184.06 12.0515 190.717 12.0515 198.929C12.0515 207.142 18.7086 213.799 26.921 213.799C35.1334 213.799 41.7904 207.142 41.7904 198.929C41.7904 197.154 41.4633 195.459 40.8923 193.879L41.7904 192.981V187.034H47.7382V181.086H53.686V175.138H59.6338V166.216H50.7121ZM30.3372 205.772C30.2639 206.121 30.1047 206.447 29.874 206.72C29.6434 206.992 29.3486 207.203 29.0161 207.333C27.6528 207.868 26.1633 207.992 24.7301 207.693C23.2969 207.393 21.9823 206.682 20.9472 205.646C19.9114 204.611 19.2002 203.296 18.9007 201.863C18.6012 200.429 18.7264 198.939 19.261 197.576C19.3911 197.243 19.6021 196.948 19.8749 196.718C20.1477 196.487 20.4737 196.328 20.8234 196.255C21.1731 196.182 21.5355 196.198 21.8777 196.3C22.22 196.402 22.5313 196.588 22.7836 196.841L29.7536 203.812C30.2666 204.325 30.4859 205.062 30.3372 205.772Z" fill="#FACB1B"/>
<path d="M59.6338 166.216H50.7121L31.9707 184.958C30.3525 184.367 28.6436 184.063 26.921 184.06C18.7086 184.06 12.0515 190.717 12.0515 198.929C12.0515 203.168 13.8336 206.982 16.6789 209.691L20.8438 205.526C19.8485 204.49 19.1706 203.191 18.8903 201.782C18.6099 200.374 18.7388 198.914 19.2617 197.576C19.3918 197.243 19.6028 196.948 19.8756 196.718C20.1485 196.487 20.4745 196.328 20.8242 196.255C21.1739 196.182 21.5362 196.198 21.8785 196.3C22.2207 196.402 22.5321 196.588 22.7843 196.841L26.1567 200.214L59.6338 166.735V166.216Z" fill="#FBE158"/>
<path d="M35.8421 185.547C35.6451 185.349 35.5344 185.082 35.5344 184.803C35.5344 184.524 35.6451 184.257 35.8421 184.06L52.1986 167.703H55.1724L37.3291 185.547C37.1318 185.744 36.8644 185.854 36.5856 185.854C36.3068 185.854 36.0394 185.744 35.8421 185.547Z" fill="#F3B607"/>
</svg>
